<svg width="117" height="90" viewBox="0 0 117 90" fill="none" xmlns="http://www.w3.org/2000/svg">
<path fill-rule="evenodd" clip-rule="evenodd" d="M89.3163 52.8576C88.1109 59.7027 85.3584 66.0144 81.4326 71.4188C78.1376 72.4463 74.6335 73 71 73C51.67 73 36 57.33 36 38C36 21.3299 47.6543 7.38177 63.2596 3.85882C67.1774 5.60021 70.8002 7.88477 74.0326 10.6169C69.679 15.1158 67 21.2451 67 28C67 40.9005 76.7712 51.5188 89.3163 52.8576ZM103.89 49.9971C100.17 60.192 91.8453 68.1716 81.4326 71.4188C73.2535 82.6787 59.9817 90 45 90C20.1472 90 0 69.8528 0 45C0 20.1472 20.1472 0 45 0C51.5006 0 57.6793 1.37838 63.2596 3.85882C65.7496 3.2967 68.3401 3 71 3C74.9967 3 78.8369 3.6699 82.4146 4.90355C79.2362 6.22413 76.3891 8.18169 74.0326 10.6169C83.7985 18.8715 90 31.2115 90 45C90 47.6804 89.7656 50.3061 89.3163 52.8576C90.198 52.9517 91.0934 53 92 53C96.3039 53 100.354 51.9124 103.89 49.9971ZM103.89 49.9971C105.255 46.2551 106 42.2145 106 38C106 22.6667 96.14 9.6364 82.4146 4.90355C85.3665 3.67706 88.6042 3 92 3C105.807 3 117 14.1929 117 28C117 37.5032 111.698 45.768 103.89 49.9971Z" fill="white"/>
</svg>
